<svg xmlns="http://www.w3.org/2000/svg" viewBox="0 0 444.95 501.33">
    <style>.style0{fill: #000;} .style1{fill: #9DE317;}</style>
        <g class="style0">
            <path d="M4.39,2H26V45.19L59.84,2H84.3L49.8,45l35.74,66.28h-24L35.6,62.11,26,74.27v37.06H4.39V2Z"/>
            <path d="M102.61,111.33V2h21.61V92.29h46.22v19H102.61Z"/>
            <path d="M183.18,56.76q0-28.05,9.7-42.41T221.56,0q19,0,28.75,14.36T260,56.76q0,28-9.7,42.33t-28.75,14.36q-19,0-28.67-14.36T183.18,56.76Zm38.38-37.35q-8.28,0-12.08,8.83t-3.81,28.53q0,19.63,3.81,28.45T221.56,94q8.35,0,12.16-8.83t3.81-28.45q0-19.7-3.81-28.53T221.56,19.41Z"/>
            <path d="M278.61,2h29.66Q330.91,2,340.83,10t9.92,26.15q0,18.09-9.92,26.15t-32.56,8.06h-8.06v40.94H278.61V2Zm21.61,18.16V52.22h8.86q10.62,0,14.9-3.59t4.28-12.45q0-8.86-4.28-12.45t-14.9-3.59h-8.86Z"/>
            <path d="M40.94,223.31L60.21,132H82L56,241.33H26L0,132H21.75Z"/>
            <path d="M118.07,132h26.44L174,241.33H152.42l-6.74-27H116.75l-6.59,27H88.55Zm13.18,19.78L121.07,196.5H141.5Z"/>
            <path d="M208.37,132h26.44l29.52,109.35H242.72l-6.74-27H207.06l-6.59,27H178.86Zm13.18,19.78L211.38,196.5h20.43Z"/>
            <path d="M325.85,189.69a10.86,10.86,0,0,1,5.6,3q2.38,2.38,5.82,9.27l19.78,39.33H333.33l-13.18-27.61q-0.59-1.17-1.54-3.22-5.79-12.38-13.62-12.38H298.1v43.21H276.49V132h31.2q21.09,0,30.29,7.47t9.19,24.32q0,11.28-5.49,17.94T325.85,189.69ZM298.1,150.14V180h10.18q8.86,0,12.71-3.48T324.83,165q0-8-3.81-11.43t-12.74-3.44H298.1Z"/>
            <path d="M413,241.33H391.41V150.87H363.65V132h77.12v18.9H413v90.45Z"/>
            <path d="M8.42,281V262H73.54v19H51.78v71.26H73.54v19H8.42v-19H30.18V281H8.42Z"/>
            <path d="M94.85,262h23.22l30.47,79.47V262h19V371.33H144.51l-30.62-79.47v79.47h-19V262Z"/>
            <path d="M232.4,371.33H210.79V280.87H183V262h77.12v18.9H232.4v90.45Z"/>
            <path d="M325.85,319.69a10.86,10.86,0,0,1,5.6,3q2.38,2.38,5.82,9.26l19.78,39.33H333.33l-13.18-27.61q-0.59-1.17-1.54-3.22-5.79-12.38-13.62-12.38H298.1v43.21H276.49V262h31.2q21.09,0,30.29,7.47t9.19,24.32q0,11.28-5.49,17.94T325.85,319.69ZM298.1,280.14V310h10.18q8.86,0,12.71-3.48T324.83,295q0-8-3.81-11.43t-12.74-3.44H298.1Z"/>
            <path d="M389,262h26.44l29.52,109.35H423.34l-6.74-27H387.67l-6.59,27H359.47Zm13.18,19.78L392,326.5h20.43Z"/>
            <path d="M184.54,392h23.22l30.47,79.47V392h19V501.33H234.2l-30.62-79.47v79.47h-19V392Z"/>
            <path d="M346.55,501.33H278.43V392h68.12v19H300V434.6h42.11v19H300v28.64h46.51v19Z"/>
            <path d="M412.39,501.33H390.79V410.87H363V392h77.12v18.9H412.39v90.45Z"/>
        </g>
        <path class="style1" d="M161.28,444.17l-46.54,51.69L98.82,482.17l10.77-11.69a99.54,99.54,0,0,1,18.23-16.38H8.52V434.25H128.05a61.84,61.84,0,0,1-8.77-6.69q-4.23-3.85-9.69-9.69L98.82,406.17l15.92-13.69Z"/>
        <path class="style1" d="M388.13,27.67q8.48,0,13.3,9.8a17.88,17.88,0,0,1,1.88,5.94h0.1a25.26,25.26,0,0,1,5.28-11.22,14,14,0,0,1,10.16-4.52q8.73,0,14,9.34a18.25,18.25,0,0,1,1.32,6.5q0,10.46-8.68,19.91L403.41,89.93h-0.25L379.7,61.19q-7-8.58-7-17.67,0-8.78,8.33-14A14.9,14.9,0,0,1,388.13,27.67Z"/>
</svg>