<?xml version="1.0" standalone="no"?>
<!DOCTYPE svg PUBLIC "-//W3C//DTD SVG 20010904//EN"
 "http://www.w3.org/TR/2001/REC-SVG-20010904/DTD/svg10.dtd">
<svg version="1.0" xmlns="http://www.w3.org/2000/svg"
 width="1024.000000pt" height="1024.000000pt" viewBox="0 0 1024.000000 1024.000000"
 preserveAspectRatio="xMidYMid meet">
<metadata>
Created by potrace 1.11, written by Peter Selinger 2001-2013
</metadata>
<g transform="translate(0.000000,1024.000000) scale(0.100000,-0.100000)"
fill="#000000" stroke="none">
<path d="M0 5095 l0 -3645 700 0 700 0 1 23 c0 12 0 568 0 1234 l1 1213 21 27
c12 16 27 35 34 43 7 8 76 96 154 195 78 99 206 262 286 363 l145 183 17 -33
c21 -39 118 -224 204 -388 33 -63 72 -137 87 -165 30 -55 96 -180 188 -355 33
-63 75 -144 94 -180 19 -36 68 -128 108 -205 40 -77 85 -162 100 -190 15 -27
56 -104 90 -170 34 -66 79 -151 100 -190 20 -38 63 -119 95 -180 139 -266 169
-323 200 -380 18 -33 59 -112 92 -175 191 -365 286 -547 324 -615 l28 -50 801
-3 801 -2 -12 22 c-6 13 -37 70 -69 128 -31 58 -81 150 -110 205 -29 55 -56
105 -60 110 -4 6 -31 55 -60 110 -29 55 -66 125 -83 155 -16 30 -45 84 -64
120 -20 36 -50 92 -68 125 -18 33 -54 101 -80 150 -26 50 -63 116 -81 148 -18
31 -31 57 -28 57 3 0 -3 12 -14 28 -11 15 -41 68 -67 117 -26 50 -51 97 -56
105 -8 13 -64 118 -229 425 -23 44 -71 132 -105 195 -34 63 -82 151 -105 195
-38 72 -115 214 -205 380 -18 33 -56 105 -85 160 -29 55 -68 126 -86 158 -19
32 -34 60 -34 61 0 2 -19 39 -43 82 -24 44 -65 120 -92 169 -51 97 -79 148
-172 320 -33 61 -62 117 -66 125 -4 8 -18 33 -30 55 -13 22 -47 85 -76 140
-30 55 -66 123 -81 150 -15 28 -48 89 -74 137 l-47 87 58 73 c32 40 60 75 63
78 3 3 27 32 52 65 25 33 54 70 64 82 26 29 13 13 359 446 366 458 740 925
759 948 8 10 38 48 67 85 30 38 60 75 67 82 7 8 25 30 40 50 15 21 35 46 45
57 10 11 37 45 60 75 23 30 47 60 52 66 12 13 40 48 131 162 37 46 70 80 74
75 6 -7 28 -91 45 -176 2 -10 6 -26 9 -35 3 -9 8 -32 11 -51 3 -19 8 -37 10
-41 2 -4 13 -47 25 -96 11 -49 29 -127 40 -174 19 -77 28 -118 34 -145 1 -5 5
-19 9 -30 3 -11 8 -31 11 -45 2 -14 12 -56 21 -95 30 -127 116 -487 156 -655
22 -91 41 -172 43 -180 2 -8 6 -26 9 -40 7 -25 46 -191 52 -220 2 -8 22 -94
46 -190 38 -161 89 -374 139 -590 43 -184 60 -254 114 -480 31 -129 72 -302
92 -385 53 -223 83 -349 109 -460 63 -263 84 -353 88 -376 3 -13 10 -42 16
-64 6 -22 38 -155 71 -295 33 -140 78 -331 101 -425 22 -93 51 -215 64 -270
13 -55 35 -147 49 -205 15 -58 28 -114 30 -125 2 -11 16 -69 30 -130 15 -60
28 -119 31 -130 2 -11 11 -47 19 -81 8 -34 17 -72 20 -85 3 -13 19 -78 35
-144 16 -67 32 -132 35 -145 6 -35 36 -162 42 -182 5 -17 62 -18 1004 -18 943
0 999 1 1004 18 2 9 11 46 19 82 20 87 84 356 109 455 11 44 22 91 24 104 3
13 20 87 39 165 30 126 60 254 70 296 16 72 57 242 65 270 5 19 36 152 70 295
33 143 69 294 80 335 10 41 21 87 24 103 2 15 7 35 10 45 3 9 7 28 10 42 3 14
15 63 27 110 11 47 22 92 24 101 2 9 15 63 28 120 55 230 99 415 102 429 4 19
72 306 127 530 22 91 42 176 44 190 3 14 19 81 35 150 72 299 99 413 103 433
3 12 19 81 36 152 17 72 40 166 50 210 10 44 35 147 55 229 20 83 37 159 40
170 2 12 4 21 5 21 1 0 3 10 6 22 2 13 15 69 29 125 53 221 144 604 149 628 3
14 21 93 41 175 20 83 38 159 41 170 2 11 10 47 19 80 12 49 66 276 80 335 26
110 73 309 106 445 22 94 42 177 44 185 2 8 6 27 10 43 l7 27 -726 0 c-399 0
-726 -3 -727 -7 0 -5 -2 -15 -4 -23 -6 -29 -67 -315 -71 -335 -5 -24 -5 -28
-39 -185 -14 -69 -28 -134 -30 -145 -3 -11 -11 -51 -19 -90 -9 -38 -18 -81
-20 -95 -5 -29 -61 -292 -70 -330 -3 -14 -8 -36 -10 -50 -3 -14 -8 -36 -11
-50 -3 -14 -8 -41 -11 -60 -3 -19 -8 -38 -10 -41 -2 -3 -5 -19 -8 -35 -3 -16
-15 -72 -26 -124 -11 -52 -23 -108 -26 -125 -3 -16 -17 -82 -31 -145 -13 -63
-26 -124 -29 -135 -2 -11 -8 -42 -14 -70 -6 -27 -12 -61 -15 -75 -3 -14 -12
-56 -20 -95 -19 -81 -104 -488 -111 -525 -2 -14 -9 -45 -14 -70 -6 -25 -13
-55 -15 -67 -3 -13 -7 -33 -10 -45 -3 -13 -12 -59 -21 -103 -9 -44 -34 -161
-55 -260 -22 -99 -42 -196 -45 -215 -3 -19 -10 -53 -16 -75 -5 -22 -12 -51
-14 -65 -3 -14 -25 -119 -49 -234 -25 -114 -48 -222 -50 -240 -3 -17 -10 -47
-15 -66 -5 -19 -12 -53 -15 -75 -4 -22 -13 -65 -20 -95 -8 -30 -17 -71 -20
-90 -3 -19 -8 -42 -10 -50 -2 -8 -7 -28 -10 -45 -12 -71 -16 -92 -25 -125 -5
-19 -12 -51 -15 -70 -3 -19 -8 -43 -11 -52 -5 -17 -10 -42 -19 -91 -3 -16 -19
-90 -35 -165 -113 -531 -158 -744 -166 -785 -3 -18 -14 -72 -25 -122 -11 -49
-21 -98 -22 -108 -2 -30 -16 -18 -23 21 -3 20 -17 89 -31 152 -13 63 -28 135
-33 160 -5 25 -11 54 -14 65 -2 11 -11 56 -21 100 -9 44 -22 109 -30 145 -8
36 -17 76 -19 90 -3 14 -14 70 -26 125 -12 55 -23 107 -24 115 -1 8 -8 38 -14
65 -10 42 -95 444 -108 510 -2 11 -10 52 -18 90 -9 39 -18 81 -20 95 -6 34
-93 449 -111 530 -36 164 -56 257 -61 285 -3 17 -19 93 -35 170 -16 77 -32
151 -34 165 -3 14 -12 57 -20 95 -35 162 -76 355 -91 435 -3 14 -10 45 -16 70
-5 25 -12 59 -14 75 -3 17 -7 37 -10 45 -3 8 -14 58 -24 110 -28 140 -59 286
-65 302 -2 7 -6 30 -9 50 -3 20 -15 79 -27 130 -18 83 -31 143 -45 218 -3 14
-11 53 -19 88 -8 34 -17 77 -20 94 -4 18 -26 126 -50 240 -25 114 -56 264 -71
335 -14 70 -28 137 -30 148 -3 11 -7 31 -10 45 -2 14 -13 66 -24 115 -37 170
-120 565 -120 570 0 3 -575 5 -1277 5 l-1278 -1 -65 -85 c-36 -48 -70 -91 -75
-98 -11 -11 -299 -378 -370 -470 -80 -104 -469 -601 -475 -606 -3 -3 -25 -32
-50 -65 -25 -33 -47 -62 -51 -65 -5 -5 -242 -307 -328 -418 -24 -31 -74 -95
-110 -142 -67 -85 -310 -395 -360 -459 -14 -19 -62 -79 -106 -135 -44 -56
-106 -136 -138 -178 -33 -42 -74 -94 -92 -115 l-33 -38 0 1435 0 1435 -701 3
-701 2 0 -3645z"/>
</g>
</svg>
