<svg xmlns="http://www.w3.org/2000/svg">
    <symbol id="logo" viewBox="0 0 638.09 194.06" > 
        <g style="fill: #fff;">
            <path d="M0,1.58H17.29V36.15L44.36,1.58H63.93L36.33,36l28.59,53H45.7L25,49.69l-7.68,9.73V89.06H0V1.58Z"/>
            <path d="M78.57,89.06V1.58H95.86V73.83h37V89.06H78.57Z"/>
            <path d="M143,45.41q0-22.44,7.76-33.93T173.73,0q15.23,0,23,11.48t7.76,33.93q0,22.38-7.76,33.87t-23,11.48q-15.18,0-22.94-11.48T143,45.41Zm30.7-29.88q-6.62,0-9.67,7.06t-3,22.82q0,15.7,3,22.76t9.67,7.06q6.68,0,9.73-7.06t3-22.76q0-15.76-3-22.82T173.73,15.53Z"/>
            <path d="M219.38,1.58h23.73q18.11,0,26,6.45t7.94,20.92q0,14.47-7.94,20.92t-26,6.45h-6.45V89.06H219.38V1.58Zm17.29,14.53V41.78h7.09q8.5,0,11.92-2.87t3.43-10q0-7.09-3.43-10t-11.92-2.87h-7.09Z"/>
            <path d="M318.22,74.65L333.63,1.58H351l-20.8,87.48h-24L285.47,1.58h17.4Z"/>
            <path d="M379.92,1.58h21.15l23.61,87.48H407.4L402,67.44H378.87l-5.27,21.62H356.31ZM390.47,17.4l-8.14,35.8h16.35Z"/>
            <path d="M452.17,1.58h21.15l23.61,87.48H479.65l-5.39-21.62H451.11l-5.27,21.62H428.55ZM462.71,17.4l-8.14,35.8h16.35Z"/>
            <path d="M546.15,47.75a8.68,8.68,0,0,1,4.48,2.43q1.9,1.91,4.66,7.41l15.82,31.46h-19L541.58,67q-0.47-.94-1.23-2.58-4.63-9.9-10.9-9.9h-5.51V89.06H506.66V1.58h25q16.88,0,24.23,6T563.2,27q0,9-4.39,14.36T546.15,47.75ZM523.95,16.11V40h8.14q7.09,0,10.17-2.78T545.33,28q0-6.39-3-9.14t-10.2-2.75h-8.14Z"/>
            <path d="M615.88,89.06H598.59V16.7H576.39V1.58h61.7V16.7H615.88V89.06Z"/>
            <path d="M3.22,121.82V106.58H55.31v15.23H37.91v57h17.4v15.23H3.22V178.83h17.4v-57H3.22Z"/>
            <path d="M72.36,106.58H90.94l24.38,63.57V106.58h15.23v87.48H112.09L87.6,130.49v63.57H72.36V106.58Z"/>
            <path d="M182.4,194.06H165.12V121.7H142.91V106.58h61.7V121.7H182.4v72.36Z"/>
            <path d="M257.17,152.75a8.69,8.69,0,0,1,4.48,2.43q1.9,1.9,4.66,7.41l15.82,31.46h-19L252.6,172q-0.47-.94-1.23-2.58-4.63-9.9-10.9-9.9H235v34.57H217.68V106.58h25q16.88,0,24.23,6T274.22,132q0,9-4.39,14.36T257.17,152.75ZM235,121.11V145h8.14q7.09,0,10.17-2.78t3.08-9.17q0-6.39-3-9.14t-10.2-2.75H235Z"/>
            <path d="M307.68,106.58h21.15l23.61,87.48H335.16l-5.39-21.62H306.62l-5.27,21.62H284.06Zm10.55,15.82-8.14,35.8h16.35Z"/>
            <path d="M433.59,106.58h18.57l24.38,63.57V106.58h15.23v87.48H473.32l-24.49-63.57v63.57H433.59V106.58Z"/>
            <path d="M563.2,194.06H508.71V106.58H563.2v15.23H526v18.87h33.69v15.23H526v22.91H563.2v15.23Z"/>
            <path d="M615.88,194.06H598.59V121.7H576.39V106.58h61.7V121.7H615.88v72.36Z"/>
        </g>
        <path style="fill: #9be500;" d="M377.09,126.27q7.08,0,11.1,8.18a14.92,14.92,0,0,1,1.57,5h0.08a21.08,21.08,0,0,1,4.41-9.36,11.71,11.71,0,0,1,8.47-3.77q7.29,0,11.69,7.8a15.23,15.23,0,0,1,1.1,5.42q0,8.73-7.25,16.61l-18.43,22.12h-0.21l-19.58-24q-5.85-7.16-5.85-14.75,0-7.33,6.95-11.65A12.43,12.43,0,0,1,377.09,126.27Z"/>
    </symbol>
</svg>
